<svg width="18" height="24" viewBox="0 0 18 24" fill="none" xmlns="http://www.w3.org/2000/svg">
<path d="M18.0067 8.22168C18.0102 7.52792 17.8205 6.84689 17.4589 6.25485C17.0971 5.66281 16.5778 5.18315 15.959 4.86957C15.3401 4.556 14.6461 4.42091 13.9548 4.47941C13.2635 4.53793 12.6022 4.78773 12.0448 5.20085C11.4875 5.61397 11.0561 6.17409 10.7991 6.8185C10.5421 7.4629 10.4695 8.16613 10.5895 8.84944C10.7096 9.53274 11.0174 10.1692 11.4787 10.6874C11.94 11.2056 12.5365 11.5852 13.2012 11.7836C12.9558 12.2824 12.576 12.703 12.1047 12.9979C11.6334 13.2929 11.0892 13.4505 10.5331 13.4532H7.54371C6.43702 13.4571 5.37138 13.8727 4.55427 14.6191V7.39809C5.46159 7.21288 6.26783 6.69737 6.81668 5.95151C7.36554 5.20565 7.61784 4.28256 7.52477 3.36121C7.4317 2.43987 6.99985 1.5859 6.31292 0.964873C5.62599 0.343845 4.73295 0 3.80691 0C2.88087 0 1.98783 0.343845 1.3009 0.964873C0.613975 1.5859 0.182111 2.43987 0.0890403 3.36121C-0.00404071 4.28256 0.248307 5.20565 0.797148 5.95151C1.34599 6.69737 2.15223 7.21288 3.05955 7.39809V16.5159C2.15393 16.6891 1.34299 17.1877 0.77969 17.9176C0.21639 18.6476 -0.0603218 19.5585 0.00172888 20.4785C0.0637896 21.3984 0.460328 22.2639 1.11656 22.9115C1.77279 23.5592 2.64335 23.9444 3.56403 23.9944C4.48472 24.0445 5.39187 23.7558 6.1144 23.183C6.83693 22.6102 7.32488 21.7928 7.48621 20.885C7.64754 19.9771 7.47116 19.0417 6.99023 18.255C6.50932 17.4683 5.75717 16.8848 4.87564 16.6145C5.12152 16.1162 5.50142 15.6963 5.97272 15.4019C6.44401 15.1074 6.98803 14.9503 7.54371 14.9479H10.5331C11.4658 14.9436 12.3739 14.6486 13.1311 14.1039C13.8882 13.5592 14.4566 12.792 14.7572 11.9091C15.6531 11.7914 16.476 11.3528 17.0735 10.6748C17.671 9.9968 18.0025 9.12533 18.0067 8.22168ZM1.56483 3.73752C1.56483 3.29408 1.69633 2.8606 1.94269 2.4919C2.18906 2.12319 2.53922 1.83581 2.9489 1.66611C3.3586 1.49642 3.8094 1.45202 4.24432 1.53854C4.67924 1.62504 5.07874 1.83857 5.3923 2.15214C5.70586 2.4657 5.9194 2.8652 6.00591 3.30012C6.09241 3.73504 6.04802 4.18585 5.87832 4.59553C5.70862 5.00521 5.42125 5.35539 5.05254 5.60175C4.68383 5.84811 4.25035 5.9796 3.80691 5.9796C3.21227 5.9796 2.642 5.74339 2.22152 5.32291C1.80105 4.90245 1.56483 4.33216 1.56483 3.73752ZM6.04899 20.1794C6.04899 20.6229 5.91749 21.0563 5.67113 21.425C5.42476 21.7937 5.0746 22.0811 4.66492 22.2508C4.25523 22.4205 3.80442 22.4649 3.36951 22.3784C2.93458 22.292 2.53509 22.0784 2.22152 21.7648C1.90796 21.4512 1.69443 21.0517 1.60791 20.6169C1.52141 20.1819 1.5658 19.7311 1.7355 19.3214C1.9052 18.9117 2.19258 18.5615 2.56128 18.3152C2.92999 18.0689 3.36347 17.9373 3.80691 17.9373C4.40155 17.9373 4.97183 18.1736 5.3923 18.594C5.81277 19.0145 6.04899 19.5848 6.04899 20.1794ZM14.2699 10.4638C13.8265 10.4638 13.393 10.3322 13.0243 10.0859C12.6556 9.83954 12.3683 9.48937 12.1986 9.07969C12.0289 8.67 11.9844 8.2192 12.0709 7.78427C12.1574 7.34935 12.3709 6.94985 12.6845 6.63629C12.9981 6.32273 13.3976 6.10919 13.8325 6.02268C14.2674 5.93617 14.7183 5.98058 15.1279 6.15027C15.5377 6.31997 15.8878 6.60734 16.1341 6.97605C16.3805 7.34476 16.512 7.77823 16.512 8.22168C16.512 8.81632 16.2757 9.3866 15.8553 9.80706C15.4348 10.2275 14.8645 10.4638 14.2699 10.4638Z" fill="#C5C5C5"/>
</svg>
